# xmcd CD database file
#
# Track frame offsets:
#	150
#	21027
#	36537
#	50284
#	73423
#	86126
#	109904
#	130904
#	142394
#	170279
#	188667
#	206926
#	225702
#	241120
#
# Disc length: 3520 seconds
#
# Revision: 0
# Processed by: cddbd v1.5.2PL0 Copyright (c) Steve Scherf et al.
# Submitted via: CDex 1.51
#
DISCID=d20dbe0e
DTITLE=Willie Nelson - Heroes
DYEAR=2012
DGENRE=Country
TTITLE0=A Horse Called Music
TTITLE1=Roll Me Up
TTITLE2=That's All There Is To This Song
TTITLE3=No Place To Fly
TTITLE4=Every Time He Drinks He Thinks Of Her
TTITLE5=Come On Up To The House
TTITLE6=Hero
TTITLE7=My Window Faces The South
TTITLE8=The Sound Of Your Memory
TTITLE9=Cold War With You
TTITLE10=Just Breathe
TTITLE11=Home In San Antone
TTITLE12=Come On Back Jesus
TTITLE13=The Scientist
EXTD=YEAR: 2012
EXTT0=
EXTT1=
EXTT2=
EXTT3=
EXTT4=
EXTT5=
EXTT6=
EXTT7=
EXTT8=
EXTT9=
EXTT10=
EXTT11=
EXTT12=
EXTT13=
PLAYORDER=
